<svg
  xmlns="http://www.w3.org/2000/svg"
  viewBox="0 0 25 23"
  width="24"
  height="24"
  aria-hidden="true"
>
  <path
    d="M 5.175 16.852 L 17.652 16.852 C 18.318 16.852 18.928 16.797 19.48 16.687 C 20.019 16.584 20.515 16.32 20.902 15.93 C 21.302 15.529 21.556 15.055 21.66 14.508 C 21.769 13.905 21.821 13.293 21.816 12.68 L 21.816 10.04 C 21.816 9.372 21.764 8.766 21.66 8.219 C 21.559 7.678 21.294 7.182 20.902 6.797 C 20.511 6.407 20.013 6.143 19.472 6.039 C 18.872 5.925 18.262 5.87 17.652 5.875 L 5.159 5.875 C 4.55 5.871 3.943 5.925 3.346 6.039 C 2.799 6.149 2.326 6.404 1.924 6.805 C 1.534 7.189 1.27 7.682 1.166 8.219 C 1.057 8.814 1.005 9.418 1.01 10.023 L 1.01 12.68 C 1.01 13.352 1.062 13.96 1.166 14.508 C 1.266 15.049 1.531 15.545 1.924 15.93 C 2.325 16.326 2.799 16.578 3.346 16.688 C 3.948 16.802 4.56 16.857 5.174 16.852 Z M 4.965 15.594 C 4.566 15.594 4.168 15.555 3.777 15.477 C 3.391 15.398 3.079 15.242 2.839 15.007 C 2.605 14.773 2.451 14.464 2.379 14.078 C 2.305 13.689 2.268 13.294 2.269 12.898 L 2.269 9.852 C 2.269 9.44 2.305 9.042 2.379 8.656 C 2.451 8.266 2.605 7.951 2.839 7.711 C 3.074 7.477 3.386 7.323 3.777 7.25 C 4.175 7.172 4.58 7.133 4.987 7.133 L 17.863 7.133 C 18.263 7.133 18.657 7.172 19.043 7.25 C 19.433 7.323 19.748 7.48 19.988 7.719 C 20.222 7.953 20.376 8.263 20.448 8.649 C 20.522 9.034 20.558 9.427 20.558 9.829 L 20.558 12.899 C 20.558 13.299 20.522 13.693 20.448 14.079 C 20.376 14.463 20.222 14.773 19.988 15.008 C 19.748 15.248 19.433 15.406 19.042 15.484 C 18.657 15.557 18.264 15.594 17.862 15.594 Z M 22.878 13.383 C 23.087 13.367 23.303 13.276 23.527 13.109 C 23.765 12.919 23.96 12.679 24.097 12.406 C 24.253 12.109 24.332 11.76 24.332 11.359 C 24.34 10.999 24.259 10.642 24.097 10.32 C 23.96 10.047 23.765 9.807 23.527 9.617 C 23.303 9.445 23.087 9.354 22.878 9.344 Z M 4.652 14.602 L 18.183 14.602 C 18.453 14.602 18.673 14.581 18.839 14.539 C 19 14.5 19.148 14.42 19.269 14.305 C 19.384 14.189 19.465 14.043 19.503 13.883 C 19.55 13.711 19.573 13.49 19.573 13.219 L 19.573 9.508 C 19.578 9.287 19.555 9.067 19.503 8.852 C 19.466 8.69 19.385 8.541 19.269 8.422 C 19.151 8.304 19.002 8.222 18.839 8.188 C 18.623 8.141 18.403 8.12 18.183 8.125 L 4.652 8.125 C 4.376 8.125 4.154 8.145 3.988 8.188 C 3.826 8.221 3.679 8.303 3.566 8.422 C 3.448 8.541 3.365 8.69 3.324 8.852 C 3.277 9.067 3.256 9.288 3.261 9.508 L 3.261 13.218 C 3.261 13.49 3.282 13.711 3.324 13.883 C 3.366 14.042 3.45 14.188 3.566 14.305 C 3.683 14.418 3.829 14.499 3.988 14.539 C 4.154 14.581 4.376 14.602 4.652 14.602 Z"
    fill="rgba(255, 255, 255, 0.4)"
  />
</svg>