<svg
  xmlns="http://www.w3.org/2000/svg"
  viewBox="0 0 16 17"
  width="24"
  height="24"
  aria-hidden="true"
>
  <path
    d="M 11.998 14.672 C 11.223 15.423 10.376 15.305 9.561 14.949 C 8.699 14.585 7.908 14.569 6.998 14.949 C 5.859 15.439 5.257 15.297 4.577 14.672 C 0.716 10.692 1.286 4.632 5.669 4.41 C 6.737 4.465 7.481 4.995 8.106 5.043 C 9.039 4.853 9.933 4.307 10.93 4.378 C 12.125 4.473 13.027 4.948 13.62 5.803 C 11.152 7.282 11.737 10.534 14 11.444 C 13.549 12.63 12.964 13.809 11.99 14.68 Z M 8.027 4.363 C 7.908 2.598 9.34 1.142 10.986 1 C 11.215 3.041 9.134 4.56 8.027 4.363 Z"
    fill="rgba(255, 255, 255, 0.4)"
  />
</svg>