<svg
  xmlns="http://www.w3.org/2000/svg"
  viewBox="0 0 17 23"
  width="24"
  height="24"
  aria-hidden="true"
>
  <path
    d="M 4.344 18.75 L 13.016 18.75 C 13.603 18.758 14.184 18.618 14.703 18.344 C 15.2 18.086 15.616 17.697 15.906 17.219 C 16.208 16.739 16.359 16.179 16.359 15.539 C 16.359 14.899 16.209 14.339 15.906 13.859 C 15.616 13.381 15.2 12.992 14.703 12.734 C 14.183 12.46 13.603 12.32 13.016 12.328 L 4.344 12.328 C 3.724 12.328 3.161 12.464 2.656 12.734 C 2.158 12.993 1.74 13.382 1.446 13.859 C 1.147 14.34 1 14.9 1 15.54 C 1 16.18 1.148 16.74 1.445 17.22 C 1.747 17.704 2.151 18.08 2.656 18.345 C 3.161 18.615 3.724 18.751 4.344 18.751 Z M 13.219 17.57 C 12.859 17.569 12.505 17.473 12.195 17.29 C 11.892 17.111 11.639 16.858 11.461 16.555 C 11.283 16.243 11.191 15.89 11.195 15.531 C 11.187 14.81 11.57 14.141 12.195 13.781 C 12.505 13.598 12.859 13.504 13.219 13.508 C 13.594 13.508 13.935 13.599 14.242 13.781 C 14.555 13.963 14.802 14.208 14.984 14.516 C 15.167 14.818 15.255 15.154 15.25 15.523 C 15.25 15.898 15.156 16.243 14.969 16.555 C 14.792 16.862 14.539 17.117 14.234 17.297 C 13.932 17.479 13.594 17.57 13.219 17.57 Z M 4.664 11.125 L 12.704 11.125 C 13.37 11.125 13.979 10.977 14.531 10.68 C 15.089 10.383 15.531 9.966 15.859 9.43 C 16.193 8.893 16.359 8.27 16.359 7.563 C 16.359 6.854 16.193 6.232 15.859 5.695 C 15.538 5.165 15.079 4.733 14.531 4.445 C 13.969 4.146 13.34 3.993 12.703 4 L 4.664 4 C 4.022 3.993 3.388 4.146 2.82 4.445 C 2.274 4.736 1.816 5.168 1.492 5.695 C 1.164 6.232 1 6.855 1 7.562 C 1 8.271 1.164 8.893 1.492 9.43 C 1.816 9.957 2.274 10.389 2.82 10.68 C 3.388 10.979 4.022 11.132 4.664 11.125 Z M 4.664 9.945 C 4.227 9.945 3.818 9.846 3.438 9.648 C 3.068 9.45 2.754 9.163 2.523 8.813 C 2.29 8.438 2.171 8.004 2.18 7.563 C 2.18 7.089 2.294 6.674 2.523 6.32 C 2.758 5.96 3.063 5.682 3.438 5.484 C 3.818 5.281 4.227 5.18 4.664 5.18 L 12.704 5.18 C 13.135 5.18 13.539 5.281 13.914 5.484 C 14.294 5.682 14.599 5.961 14.828 6.32 C 15.063 6.674 15.18 7.089 15.18 7.562 C 15.18 8.036 15.063 8.453 14.828 8.812 C 14.601 9.165 14.286 9.453 13.914 9.648 C 13.541 9.845 13.126 9.947 12.704 9.945 Z M 4.664 9.415 C 4.991 9.424 5.313 9.34 5.594 9.172 C 5.875 9 6.099 8.773 6.266 8.492 C 6.437 8.206 6.523 7.891 6.523 7.547 C 6.533 7.22 6.449 6.898 6.281 6.617 C 6.118 6.339 5.883 6.11 5.601 5.953 C 5.317 5.786 4.993 5.699 4.664 5.703 C 4.32 5.703 4.008 5.786 3.727 5.953 C 3.445 6.12 3.221 6.343 3.055 6.625 C 2.893 6.908 2.81 7.229 2.813 7.555 C 2.813 7.898 2.893 8.211 3.055 8.492 C 3.221 8.773 3.445 8.997 3.727 9.164 C 4.007 9.331 4.32 9.414 4.664 9.414 Z"
    fill="rgba(255, 255, 255, 0.4)"
  />
</svg>