<svg
  xmlns="http://www.w3.org/2000/svg"
  viewBox="0 0 19 23"
  width="24"
  height="24"
  aria-hidden="true"
>
  <path
    d="M 9.648 17.746 C 9.737 17.744 9.824 17.717 9.898 17.668 C 9.987 17.616 10.104 17.52 10.25 17.378 L 12.078 15.621 C 12.136 15.572 12.173 15.502 12.18 15.426 C 12.19 15.347 12.167 15.268 12.117 15.207 C 11.872 14.889 11.531 14.613 11.094 14.379 C 10.649 14.141 10.152 14.02 9.648 14.027 C 9.133 14.021 8.624 14.148 8.172 14.395 C 7.734 14.639 7.393 14.925 7.148 15.254 C 7.112 15.309 7.098 15.376 7.109 15.441 C 7.13 15.511 7.171 15.574 7.227 15.621 L 9.055 17.379 C 9.195 17.519 9.31 17.616 9.398 17.668 C 9.473 17.716 9.559 17.743 9.648 17.746 Z M 5.258 13.645 C 5.324 13.718 5.418 13.758 5.516 13.754 C 5.616 13.745 5.708 13.697 5.773 13.621 C 6.221 13.116 6.792 12.701 7.484 12.379 C 8.16 12.059 8.9 11.896 9.648 11.902 C 10.403 11.896 11.149 12.064 11.828 12.395 C 12.521 12.723 13.096 13.139 13.555 13.645 C 13.615 13.717 13.703 13.76 13.797 13.762 C 13.891 13.754 13.978 13.709 14.039 13.637 L 15.203 12.488 C 15.261 12.435 15.297 12.363 15.305 12.285 C 15.31 12.206 15.285 12.128 15.235 12.066 C 14.827 11.579 14.345 11.159 13.805 10.824 C 13.209 10.444 12.562 10.152 11.883 9.957 C 11.158 9.741 10.405 9.633 9.648 9.637 C 8.892 9.633 8.139 9.741 7.414 9.957 C 6.738 10.153 6.093 10.445 5.5 10.824 C 4.96 11.159 4.478 11.579 4.07 12.066 C 4.017 12.123 3.989 12.199 3.992 12.277 C 3.997 12.35 4.032 12.421 4.094 12.488 Z M 2.133 10.512 C 2.196 10.585 2.287 10.628 2.383 10.629 C 2.48 10.625 2.571 10.579 2.633 10.504 C 3.526 9.548 4.609 8.79 5.813 8.277 C 7.026 7.763 8.331 7.502 9.648 7.512 C 11.018 7.512 12.3 7.767 13.492 8.277 C 14.696 8.792 15.78 9.553 16.672 10.512 C 16.735 10.578 16.823 10.614 16.914 10.613 C 17.008 10.613 17.097 10.57 17.156 10.496 L 18.188 9.457 C 18.25 9.405 18.287 9.328 18.289 9.247 C 18.296 9.167 18.271 9.088 18.219 9.027 C 17.63 8.303 16.888 7.657 15.992 7.09 C 15.068 6.504 14.066 6.052 13.016 5.746 C 11.924 5.417 10.789 5.251 9.648 5.254 C 8.505 5.251 7.368 5.417 6.273 5.746 C 5.223 6.052 4.221 6.504 3.297 7.09 C 2.407 7.658 1.667 8.303 1.078 9.027 C 1.026 9.088 0.998 9.167 1 9.247 C 1.005 9.324 1.04 9.395 1.102 9.457 L 2.132 10.512 Z"
    fill="rgba(255, 255, 255, 0.4)"
  />
</svg>